<mxfile host="app.diagrams.net" modified="2023-05-31T10:08:14.777Z" agent="Mozilla/5.0 (Macintosh; Intel Mac OS X 10_15_7) AppleWebKit/537.36 (KHTML, like Gecko) Chrome/113.0.0.0 Safari/537.36" etag="7GqPJCdXVHBUWplkFoP0" version="21.3.5" type="github">
  <diagram name="第 1 页" id="JVcsUYehm8d8_0C-aW2x">
    <mxGraphModel dx="1159" dy="621" grid="1" gridSize="10" guides="1" tooltips="1" connect="1" arrows="1" fold="1" page="1" pageScale="1" pageWidth="827" pageHeight="1169" math="0" shadow="0">
      <root>
        <mxCell id="0" />
        <mxCell id="1" parent="0" />
        <mxCell id="w1Tw4Vgy_pDU0G5uJ-N5-5" style="edgeStyle=none;rounded=0;orthogonalLoop=1;jettySize=auto;html=1;exitX=0.5;exitY=1;exitDx=0;exitDy=0;entryX=0.5;entryY=0;entryDx=0;entryDy=0;entryPerimeter=0;" parent="1" source="-ExndlOX1vHBLT9ZD7r--1" target="-ExndlOX1vHBLT9ZD7r--16" edge="1">
          <mxGeometry relative="1" as="geometry" />
        </mxCell>
        <mxCell id="-ExndlOX1vHBLT9ZD7r--1" value="业务" style="ellipse;whiteSpace=wrap;html=1;" parent="1" vertex="1">
          <mxGeometry x="570" y="110" width="90" height="60" as="geometry" />
        </mxCell>
        <mxCell id="-ExndlOX1vHBLT9ZD7r--11" style="edgeStyle=orthogonalEdgeStyle;curved=1;rounded=0;orthogonalLoop=1;jettySize=auto;html=1;entryX=0.5;entryY=0;entryDx=0;entryDy=0;exitX=0.5;exitY=1;exitDx=0;exitDy=0;" parent="1" source="-ExndlOX1vHBLT9ZD7r--2" target="-ExndlOX1vHBLT9ZD7r--5" edge="1">
          <mxGeometry relative="1" as="geometry">
            <mxPoint x="360" y="130" as="sourcePoint" />
          </mxGeometry>
        </mxCell>
        <mxCell id="-ExndlOX1vHBLT9ZD7r--12" style="edgeStyle=orthogonalEdgeStyle;curved=1;rounded=0;orthogonalLoop=1;jettySize=auto;html=1;exitX=0.5;exitY=1;exitDx=0;exitDy=0;" parent="1" source="-ExndlOX1vHBLT9ZD7r--2" target="-ExndlOX1vHBLT9ZD7r--4" edge="1">
          <mxGeometry relative="1" as="geometry">
            <mxPoint x="410" y="110" as="sourcePoint" />
          </mxGeometry>
        </mxCell>
        <mxCell id="-ExndlOX1vHBLT9ZD7r--13" style="edgeStyle=orthogonalEdgeStyle;curved=1;rounded=0;orthogonalLoop=1;jettySize=auto;html=1;exitX=0.5;exitY=1;exitDx=0;exitDy=0;entryX=0.5;entryY=0;entryDx=0;entryDy=0;" parent="1" source="-ExndlOX1vHBLT9ZD7r--2" target="-ExndlOX1vHBLT9ZD7r--1" edge="1">
          <mxGeometry relative="1" as="geometry">
            <mxPoint x="452.42640687119274" y="130.00427124746167" as="sourcePoint" />
          </mxGeometry>
        </mxCell>
        <mxCell id="-ExndlOX1vHBLT9ZD7r--2" value="GLM-10B" style="ellipse;whiteSpace=wrap;html=1;" parent="1" vertex="1">
          <mxGeometry x="372.5" y="20" width="75" height="50" as="geometry" />
        </mxCell>
        <mxCell id="w1Tw4Vgy_pDU0G5uJ-N5-3" style="edgeStyle=none;rounded=0;orthogonalLoop=1;jettySize=auto;html=1;exitX=0.5;exitY=1;exitDx=0;exitDy=0;entryX=0.5;entryY=0;entryDx=0;entryDy=0;entryPerimeter=0;" parent="1" source="-ExndlOX1vHBLT9ZD7r--4" target="-ExndlOX1vHBLT9ZD7r--14" edge="1">
          <mxGeometry relative="1" as="geometry" />
        </mxCell>
        <mxCell id="-ExndlOX1vHBLT9ZD7r--4" value="Math" style="ellipse;whiteSpace=wrap;html=1;" parent="1" vertex="1">
          <mxGeometry x="365" y="150" width="90" height="60" as="geometry" />
        </mxCell>
        <mxCell id="w1Tw4Vgy_pDU0G5uJ-N5-4" style="edgeStyle=none;rounded=0;orthogonalLoop=1;jettySize=auto;html=1;exitX=0.5;exitY=1;exitDx=0;exitDy=0;entryX=0.5;entryY=0;entryDx=0;entryDy=0;entryPerimeter=0;" parent="1" source="-ExndlOX1vHBLT9ZD7r--5" target="-ExndlOX1vHBLT9ZD7r--15" edge="1">
          <mxGeometry relative="1" as="geometry" />
        </mxCell>
        <mxCell id="-ExndlOX1vHBLT9ZD7r--5" value="通用" style="ellipse;whiteSpace=wrap;html=1;" parent="1" vertex="1">
          <mxGeometry x="150" y="110" width="90" height="60" as="geometry" />
        </mxCell>
        <mxCell id="-ExndlOX1vHBLT9ZD7r--24" style="edgeStyle=orthogonalEdgeStyle;curved=1;rounded=0;orthogonalLoop=1;jettySize=auto;html=1;exitX=0.5;exitY=1;exitDx=0;exitDy=0;entryX=0.5;entryY=0;entryDx=0;entryDy=0;" parent="1" source="W4qTxE4Dv-Gv_G1JjEeI-5" target="-ExndlOX1vHBLT9ZD7r--18" edge="1">
          <mxGeometry relative="1" as="geometry">
            <mxPoint x="410" y="420" as="sourcePoint" />
          </mxGeometry>
        </mxCell>
        <mxCell id="w1Tw4Vgy_pDU0G5uJ-N5-2" style="edgeStyle=orthogonalEdgeStyle;curved=1;rounded=0;orthogonalLoop=1;jettySize=auto;html=1;exitX=0.5;exitY=1;exitDx=0;exitDy=0;entryX=0.5;entryY=0;entryDx=0;entryDy=0;dashed=1;" parent="1" source="W4qTxE4Dv-Gv_G1JjEeI-5" target="-ExndlOX1vHBLT9ZD7r--17" edge="1">
          <mxGeometry relative="1" as="geometry">
            <mxPoint x="410" y="420" as="sourcePoint" />
          </mxGeometry>
        </mxCell>
        <mxCell id="W4qTxE4Dv-Gv_G1JjEeI-6" style="edgeStyle=none;rounded=0;orthogonalLoop=1;jettySize=auto;html=1;exitX=0.5;exitY=1;exitDx=0;exitDy=0;exitPerimeter=0;entryX=0.5;entryY=0;entryDx=0;entryDy=0;" edge="1" parent="1" source="-ExndlOX1vHBLT9ZD7r--14" target="W4qTxE4Dv-Gv_G1JjEeI-5">
          <mxGeometry relative="1" as="geometry" />
        </mxCell>
        <mxCell id="-ExndlOX1vHBLT9ZD7r--14" value="试题1200w" style="shape=cylinder3;whiteSpace=wrap;html=1;boundedLbl=1;backgroundOutline=1;size=15;" parent="1" vertex="1">
          <mxGeometry x="365" y="240" width="90" height="70" as="geometry" />
        </mxCell>
        <mxCell id="-ExndlOX1vHBLT9ZD7r--15" value="悟道150G + pile 220G" style="shape=cylinder3;whiteSpace=wrap;html=1;boundedLbl=1;backgroundOutline=1;size=15;" parent="1" vertex="1">
          <mxGeometry x="150" y="200" width="90" height="70" as="geometry" />
        </mxCell>
        <mxCell id="W4qTxE4Dv-Gv_G1JjEeI-9" style="edgeStyle=orthogonalEdgeStyle;curved=1;rounded=0;orthogonalLoop=1;jettySize=auto;html=1;exitX=0.5;exitY=1;exitDx=0;exitDy=0;exitPerimeter=0;entryX=0.5;entryY=0;entryDx=0;entryDy=0;" edge="1" parent="1" source="-ExndlOX1vHBLT9ZD7r--16" target="W4qTxE4Dv-Gv_G1JjEeI-7">
          <mxGeometry relative="1" as="geometry" />
        </mxCell>
        <mxCell id="W4qTxE4Dv-Gv_G1JjEeI-10" style="edgeStyle=orthogonalEdgeStyle;curved=1;rounded=0;orthogonalLoop=1;jettySize=auto;html=1;exitX=0.5;exitY=1;exitDx=0;exitDy=0;exitPerimeter=0;entryX=0.5;entryY=0;entryDx=0;entryDy=0;" edge="1" parent="1" source="-ExndlOX1vHBLT9ZD7r--16" target="W4qTxE4Dv-Gv_G1JjEeI-8">
          <mxGeometry relative="1" as="geometry" />
        </mxCell>
        <mxCell id="-ExndlOX1vHBLT9ZD7r--16" value="作文/阅读理解/悟道总10B" style="shape=cylinder3;whiteSpace=wrap;html=1;boundedLbl=1;backgroundOutline=1;size=15;" parent="1" vertex="1">
          <mxGeometry x="570" y="200" width="90" height="70" as="geometry" />
        </mxCell>
        <mxCell id="-ExndlOX1vHBLT9ZD7r--17" value="5w tokenizer" style="ellipse;whiteSpace=wrap;html=1;aspect=fixed;dashed=1;" parent="1" vertex="1">
          <mxGeometry x="305" y="430" width="60" height="60" as="geometry" />
        </mxCell>
        <mxCell id="-ExndlOX1vHBLT9ZD7r--27" style="edgeStyle=orthogonalEdgeStyle;curved=1;rounded=0;orthogonalLoop=1;jettySize=auto;html=1;exitX=0.5;exitY=1;exitDx=0;exitDy=0;entryX=0.5;entryY=0;entryDx=0;entryDy=0;" parent="1" source="-ExndlOX1vHBLT9ZD7r--18" edge="1">
          <mxGeometry relative="1" as="geometry">
            <Array as="points">
              <mxPoint x="485" y="500" />
              <mxPoint x="410" y="500" />
            </Array>
            <mxPoint x="410" y="520" as="targetPoint" />
          </mxGeometry>
        </mxCell>
        <mxCell id="-ExndlOX1vHBLT9ZD7r--18" value="17w tokenizer" style="ellipse;whiteSpace=wrap;html=1;aspect=fixed;fillColor=#d5e8d4;strokeColor=#82b366;" parent="1" vertex="1">
          <mxGeometry x="455" y="430" width="60" height="60" as="geometry" />
        </mxCell>
        <mxCell id="-ExndlOX1vHBLT9ZD7r--20" value="样本独立" style="ellipse;whiteSpace=wrap;html=1;aspect=fixed;fillColor=none;strokeColor=#000000;" parent="1" vertex="1">
          <mxGeometry x="380" y="520" width="60" height="60" as="geometry" />
        </mxCell>
        <mxCell id="W4qTxE4Dv-Gv_G1JjEeI-5" value="样本随机拼接" style="ellipse;whiteSpace=wrap;html=1;aspect=fixed;fillColor=none;strokeColor=#000000;" vertex="1" parent="1">
          <mxGeometry x="380" y="330" width="60" height="60" as="geometry" />
        </mxCell>
        <mxCell id="W4qTxE4Dv-Gv_G1JjEeI-7" value="PE长度1024" style="ellipse;whiteSpace=wrap;html=1;aspect=fixed;fillColor=none;strokeColor=#000000;" vertex="1" parent="1">
          <mxGeometry x="530" y="310" width="60" height="60" as="geometry" />
        </mxCell>
        <mxCell id="W4qTxE4Dv-Gv_G1JjEeI-8" value="PE长度2048" style="ellipse;whiteSpace=wrap;html=1;aspect=fixed;fillColor=none;strokeColor=#000000;" vertex="1" parent="1">
          <mxGeometry x="650" y="310" width="60" height="60" as="geometry" />
        </mxCell>
      </root>
    </mxGraphModel>
  </diagram>
</mxfile>
